<?xml version="1.0" encoding="utf-8"?>
<!-- Generator: Adobe Illustrator 23.0.3, SVG Export Plug-In . SVG Version: 6.00 Build 0)  -->
<svg version="1.1" id="Layer_1" xmlns="http://www.w3.org/2000/svg" xmlns:xlink="http://www.w3.org/1999/xlink" x="0px" y="0px"
	 viewBox="0 0 94 48.1" style="enable-background:new 0 0 94 48.1;" xml:space="preserve">
<style type="text/css">
	.st0{fill:#FEFFFF;}
	.st1{fill:#D43F5A;}
</style>
<rect x="48" y="0.1" class="st0" width="9.6" height="48"/>
<rect x="84.4" y="0.1" class="st0" width="9.6" height="48"/>
<path class="st1" d="M70.5,36.1L70.5,36.1c-2.7,0-4.8-2.2-4.8-4.8l0,0c0-2.7,2.2-4.8,4.8-4.8l0,0c2.7,0,4.8,2.2,4.8,4.8l0,0
	C75.3,34,73.2,36.1,70.5,36.1z"/>
<path class="st1" d="M4.8,29L4.8,29C2.1,29,0,26.8,0,24.1l0,0c0-2.7,2.2-4.8,4.8-4.8l0,0c2.7,0,4.8,2.2,4.8,4.8l0,0
	C9.6,26.8,7.4,29,4.8,29z"/>
<rect class="st0" width="36" height="9.6"/>
<rect y="38.4" class="st0" width="36" height="9.6"/>
<rect y="31.3" class="st0" width="9.6" height="16.7"/>
<rect class="st0" width="9.6" height="16.7"/>
<rect x="48" y="38.5" class="st0" width="15.9" height="9.6"/>
<rect x="77.1" y="38.5" class="st0" width="15.8" height="9.6"/>
</svg>
